<?xml version="1.0" encoding="UTF-8"?>
<svg width="75px" height="75px" viewBox="0 0 75 75" version="1.1" xmlns="http://www.w3.org/2000/svg" xmlns:xlink="http://www.w3.org/1999/xlink">
    <!-- Generator: Sketch 49 (51002) - http://www.bohemiancoding.com/sketch -->
    <title>icons-header/page-5-header-icon  </title>
    <desc>Created with Sketch.</desc>
    <defs>
        <path d="M37.9905188,48.3466918 C39.297615,46.5977003 41.2620489,45.0193957 43.6855979,44.4339615 C47.7754297,43.4467682 50.6680467,41.6990606 51.8235285,41.0109762 C51.8783031,40.9787851 52.4247442,40.4798233 52.3817071,40.7440584 C52.1156594,42.3737321 49.5921184,49.4986921 47.4624324,51.4636895 C43.9031993,54.7450361 40.0902083,55.4617238 37.978179,54.9265002 C37.9660514,55.9175037 37.9485423,56.8788074 37.9248498,57.7994225 C38.0353758,58.3372931 38.0261254,58.81774 37.8828779,59.1976406 C37.7509578,63.0062702 37.4941306,65.9369125 37.0463547,67.0847532 C37.3209013,67.0925932 37.5963913,67.0965394 37.872773,67.0965394 C53.8662615,67.0965394 66.8794323,53.8799726 66.8794323,37.6302006 C66.8794323,21.3804286 53.8662615,8.15873175 37.872773,8.15873175 C21.8780222,8.15873175 8.86990067,21.3804286 8.86990067,37.6302006 C8.86990067,52.7180634 20.0842864,65.1909802 34.4912224,66.8975453 C34.6628602,65.1943398 34.8166153,62.9744604 34.9510562,60.493174 C32.9001193,60.5318906 30.0433831,59.7446382 27.2261357,57.5187733 C25.0697586,55.8136933 22.1868015,49.4220861 21.8223434,47.9490729 C21.7627686,47.7096777 22.3164645,48.1420547 22.3690306,48.1689256 C23.5126347,48.7466497 26.3757334,50.2208844 30.3205251,50.9537268 C32.2686711,51.3151638 33.96205,52.3181024 35.2592465,53.533718 C35.3507556,51.0096093 35.4248527,48.4537307 35.4804231,46.0648843 C33.6439163,46.1826825 31.0252806,45.24719 28.7028553,42.4429389 C27.0749378,40.4774488 25.512338,33.3586386 25.4143614,31.7315593 C25.398032,31.4675989 25.8163164,31.9657396 25.8590241,31.9995807 C26.7709594,32.6872315 29.0482853,34.438846 32.3819991,35.4324202 C33.6542787,35.8118088 34.7367205,36.6020185 35.6017968,37.5836431 C35.6029739,36.5335177 35.5947671,35.6910145 35.57682,35.1196383 C35.5415282,34.0036752 35.6307718,32.4137724 35.7885499,30.8008002 C34.1408474,28.8993298 33.54644,24.1815591 36.38135,21.5591738 C38.867346,19.2577155 40.0109041,16.8472472 40.4753928,15.8918787 C40.4976359,15.8477847 40.6140852,15.2659898 40.7370766,15.4791105 C41.4933427,16.7970291 43.7830758,23.0828641 43.336905,25.3647251 C42.5137511,29.5868128 39.6089735,31.577266 37.6639326,31.652507 C37.7515743,34.6538476 37.8512,38.4524583 37.9190778,42.4491862 C38.0162811,43.0698191 38.0269029,43.6465816 37.9455846,44.1367626 C37.965699,45.5346633 37.9812808,46.9462439 37.9905188,48.3466918 Z M37.872773,70.3836874 C20.0969004,70.3836874 5.63585824,55.690918 5.63585824,37.6302006 C5.63585824,19.5656356 20.0969004,4.87158371 37.872773,4.87158371 C55.6524325,4.87158371 70.1134747,19.5656356 70.1134747,37.6302006 C70.1134747,55.690918 55.6524325,70.3836874 37.872773,70.3836874 Z" id="path-1"></path>
    </defs>
    <g id="icons-header/page-5-header-icon--" stroke="none" stroke-width="1" fill="none" fill-rule="evenodd">
        <mask id="mask-2" fill="white">
            <use xlink:href="#path-1"></use>
        </mask>
        <use id="Mask" fill="#4B4B4B" xlink:href="#path-1"></use>
        <g id="Farben/teritary-1" mask="url(#mask-2)" fill="#004C2D">
            <g transform="translate(0.000000, -14.000000)" id="Golden-Main">
                <rect x="0" y="0" width="96" height="88"></rect>
            </g>
        </g>
    </g>
</svg>