<?xml version="1.0" encoding="UTF-8"?>
<svg width="75px" height="75px" viewBox="0 0 75 75" version="1.1" xmlns="http://www.w3.org/2000/svg" xmlns:xlink="http://www.w3.org/1999/xlink">
    <!-- Generator: Sketch 49 (51002) - http://www.bohemiancoding.com/sketch -->
    <title>icons-header/page-2-header-icon</title>
    <desc>Created with Sketch.</desc>
    <defs>
        <path d="M33.3043605,69.6822558 C18.8306395,69.6822558 6.43412791,62.1434186 3.38505814,50.2808605 C0.822732558,40.3213256 5.49319767,29.8571395 14.5508721,22.6194651 C9.05505814,28.2683023 6.28436047,35.8055116 7.70877907,43.4029535 C9.89343023,55.0506279 21.2155233,63.0045814 34.3559884,63.0045814 C36.3631977,63.0045814 38.4143605,62.8206279 40.4834302,62.4299302 C56.0625,59.511093 66.6569186,46.263186 64.1385465,32.8329535 C62.1622674,22.2580698 52.6455233,14.729 41.0743605,13.4315581 C41.1443605,13.4250465 41.2208721,13.4250465 41.2876163,13.4250465 C55.7548256,13.4250465 68.1578488,20.9638837 71.2069186,32.8329535 C75.0064535,47.594814 62.9062209,63.4685349 44.1722674,68.2838837 C40.5029651,69.2313256 36.8401744,69.6822558 33.3043605,69.6822558 Z M44.7314535,55.7688605 C44.5572674,54.4942093 44.1340116,52.6318837 43.129593,50.7353721 C42.5093605,49.5616512 41.6221512,48.3000233 40.3784302,47.1816512 L40.3719186,46.3286279 C41.2526163,44.227 43.0042442,42.0439767 46.1656395,39.9863023 C46.1656395,39.9863023 52.9719186,49.0781628 44.7314535,55.7688605 Z M40.2451047,43.5532093 C40.0611512,42.2769302 39.6378953,40.408093 38.6334767,38.5132093 C37.9725465,37.2646047 37.0153372,35.9150698 35.6381279,34.7543721 C35.6576628,34.6941395 35.6788256,34.6322791 35.7016163,34.5753023 L35.7211512,34.5687907 L35.7211512,34.5150698 C36.5416163,32.2913488 38.3127791,29.9585581 41.6695233,27.7625116 C41.6695233,27.7625116 48.4774302,36.8625116 40.2451047,43.5532093 Z M35.5840814,30.8859767 C35.4066395,29.6096977 34.9833837,27.7473721 33.9822209,25.8508605 C33.3196628,24.5957442 32.3624535,23.2527209 30.9868721,22.0871395 C31.7617558,19.7950465 33.5361744,17.371093 37.0150116,15.1017907 C37.0150116,15.1017907 43.8245465,24.1952791 35.5840814,30.8859767 Z M29.3236395,20.4826744 C29.3236395,20.4826744 25.6136395,19.492907 23.523407,16.2940698 C22.0778256,14.0719767 21.4168953,10.7754651 23.3524767,6.00081395 C23.4485233,6.03337209 29.8201512,8.18872093 30.6048023,13.9466279 C30.8489884,15.7568605 30.5510814,17.9187209 29.3236395,20.4826744 Z M32.1055698,32.680907 C30.5102209,32.0736977 28.6055698,31.6976512 26.3183605,31.6976512 C25.9081279,31.6976512 25.4897558,31.7106744 25.0665,31.7383488 C19.4762674,28.9416047 19.028593,21.7120698 19.028593,21.7120698 C19.9695233,21.5883488 20.8502209,21.533 21.6674302,21.533 C33.2027791,21.533 33.2190581,32.5034651 33.2190581,32.5034651 C32.8365,32.5718372 32.468593,32.6336977 32.1055698,32.680907 Z M37.4122209,45.2446047 C35.6671047,44.4404186 33.5019884,43.9211163 30.814314,43.9211163 C30.2298953,43.9211163 29.6129186,43.9471628 28.992686,43.9943721 C24.0894302,40.968093 23.6791977,34.371814 23.6791977,34.371814 C24.6217558,34.2562326 25.5024535,34.2008837 26.3196628,34.2008837 C37.8566395,34.2008837 37.8761744,45.1615814 37.8761744,45.1615814 C37.7198953,45.1973953 37.5685,45.2153023 37.4122209,45.2446047 Z M39.1641744,57.7083488 C28.8660349,57.7083488 28.1692907,46.5962558 28.1692907,46.5962558 C29.1102209,46.4790465 29.9909186,46.417186 30.8146395,46.417186 C42.3532442,46.417186 42.3662674,57.3876512 42.3662674,57.3876512 C41.2055698,57.6057907 40.1409186,57.7083488 39.1641744,57.7083488 Z" id="path-1"></path>
    </defs>
    <g id="icons-header/page-2-header-icon" stroke="none" stroke-width="1" fill="none" fill-rule="evenodd">
        <mask id="mask-2" fill="white">
            <use xlink:href="#path-1"></use>
        </mask>
        <use id="Mask" fill="#4B4B4B" xlink:href="#path-1"></use>
        <g id="Farben/teritary-1" mask="url(#mask-2)" fill="#004C2D">
            <g transform="translate(-7.000000, 0.000000)" id="Golden-Main">
                <rect x="0" y="0" width="96" height="88"></rect>
            </g>
        </g>
    </g>
</svg>