<?xml version="1.0" encoding="UTF-8"?>
<svg width="60px" height="60px" viewBox="0 0 60 60" version="1.1" xmlns="http://www.w3.org/2000/svg" xmlns:xlink="http://www.w3.org/1999/xlink">
    <!-- Generator: Sketch 49 (51002) - http://www.bohemiancoding.com/sketch -->
    <title>Logo/getreide@2x</title>
    <desc>Created with Sketch.</desc>
    <defs>
        <polygon id="path-1" points="3.72795489e-05 0.267423443 54.9759062 0.267423443 54.9759062 44.2307692 3.72795489e-05 44.2307692"></polygon>
    </defs>
    <g id="Logo/getreide" stroke="none" stroke-width="1" fill="none" fill-rule="evenodd">
        <g id="Page-1" transform="translate(3.000000, 5.000000)">
            <g id="Group-3" transform="translate(0.000000, 5.769231)">
                <mask id="mask-2" fill="white">
                    <use xlink:href="#path-1"></use>
                </mask>
                <g id="Clip-2"></g>
                <path d="M24.317584,44.2307692 C12.8217638,44.2307692 2.97577667,38.3393908 0.554038802,29.0691524 C-1.48110023,21.2860703 2.22843845,13.1086183 9.42253855,7.45258974 C5.05746271,11.866989 2.85682318,17.7570952 3.98817429,23.6942714 C5.72334366,32.7965846 14.7159688,39.0123641 25.1528444,39.0123641 C26.7470798,39.0123641 28.3762254,38.8686099 30.0195937,38.5632912 C42.3933424,36.2823062 50.8080087,25.9294586 48.80778,15.4341289 C47.2381111,7.17016996 39.6793927,1.28642454 30.4889427,0.272512088 C30.5445406,0.267423443 30.6053103,0.267423443 30.6583222,0.267423443 C42.1489706,0.267423443 52.0001296,6.15880183 54.4218674,15.4341289 C57.4396657,26.9700864 47.8289996,39.37493 32.9494698,43.1379828 C30.0351093,43.8783806 27.1259208,44.2307692 24.317584,44.2307692" id="Fill-1" fill="#3C6446" mask="url(#mask-2)"></path>
            </g>
            <path d="M32.9046088,39.4230769 C32.7850498,38.4135359 32.4945325,36.9385488 31.8051126,35.4364859 C31.379393,34.506883 30.7704241,33.5076566 29.9167502,32.6218907 L29.9122807,31.9462848 C30.5167801,30.281767 31.7190748,28.552783 33.8890155,26.9230769 C33.8890155,26.9230769 38.5607571,34.1239537 32.9046088,39.4230769" id="Fill-4" fill="#3C6446"></path>
            <path d="M29.6394503,28.8461538 C29.4962311,27.8358446 29.1667,26.3564631 28.3846975,24.8564631 C27.8701221,23.8680611 27.1248749,22.7997621 26.0526316,21.8809477 C26.0678407,21.8332672 26.0843173,21.7842982 26.1020612,21.7391951 L26.1172704,21.7340404 L26.1172704,21.6915147 C26.7560536,19.9312054 28.1350143,18.0845559 30.7484491,16.3461538 C30.7484491,16.3461538 36.0488293,23.5497621 29.6394503,28.8461538" id="Fill-6" fill="#3C6446"></path>
            <path d="M26.7388081,19.2307692 C26.600593,18.2200432 26.2709055,16.7452082 25.4910677,15.2433002 C24.97498,14.2493336 24.2293791,13.1857507 23.1578947,12.2626896 C23.7614764,10.4475081 25.1436279,8.52790207 27.8534054,6.73076923 C27.8534054,6.73076923 33.1575699,13.9321925 26.7388081,19.2307692" id="Fill-8" fill="#3C6446"></path>
            <path d="M22.0815031,11.5384615 C22.0815031,11.5384615 19.1445079,10.7498616 17.4897902,8.20117944 C16.3454059,6.43072081 15.8221852,3.80421624 17.3544744,0 C17.430509,0.0259407858 22.474563,1.74322081 23.0957265,6.33084878 C23.2890347,7.77315647 23.0531987,9.49562465 22.0815031,11.5384615" id="Fill-10" fill="#3C6446"></path>
            <path d="M23.2142376,21.1538462 C21.912486,20.6824845 20.358354,20.3905688 18.4920673,20.3905688 C18.1573312,20.3905688 17.8159535,20.4006785 17.4705908,20.4221614 C12.9091471,18.2511177 12.5438596,12.6390075 12.5438596,12.6390075 C13.3116274,12.5429659 14.0302474,12.5 14.697063,12.5 C24.1095238,12.5 24.122807,21.0161024 24.122807,21.0161024 C23.8106523,21.069178 23.5104525,21.1171987 23.2142376,21.1538462" id="Fill-12" fill="#AAC837"></path>
            <path d="M27.6040592,30.7692308 C26.1807555,30.1390716 24.4149029,29.7321469 22.2228559,29.7321469 C21.7462085,29.7321469 21.2430069,29.7525569 20.7371499,29.7895501 C16.7380914,27.4181615 16.4035088,22.2493253 16.4035088,22.2493253 C17.1722521,22.1587559 17.8905425,22.1153846 18.5570522,22.1153846 C27.9665236,22.1153846 27.9824561,30.7041738 27.9824561,30.7041738 C27.8549961,30.7322376 27.7315192,30.7462695 27.6040592,30.7692308" id="Fill-14" fill="#AAC837"></path>
            <path d="M29.2305023,40.3846154 C20.8314172,40.3846154 20.2631579,31.868013 20.2631579,31.868013 C21.0305735,31.7781807 21.7488639,31.7307692 22.4206845,31.7307692 C31.8314836,31.7307692 31.8421053,40.1388242 31.8421053,40.1388242 C30.895449,40.3060121 30.0271275,40.3846154 29.2305023,40.3846154" id="Fill-16" fill="#AAC837"></path>
        </g>
    </g>
</svg>