<?xml version="1.0" encoding="UTF-8"?>
<svg width="21px" height="37px" viewBox="0 0 21 37" version="1.1" xmlns="http://www.w3.org/2000/svg" xmlns:xlink="http://www.w3.org/1999/xlink">
    <!-- Generator: Sketch 48.2 (47327) - http://www.bohemiancoding.com/sketch -->
    <title>icons-general/icon-arrow-next</title>
    <desc>Created with Sketch.</desc>
    <defs></defs>
    <g id="Symbols" stroke="none" stroke-width="1" fill="none" fill-rule="evenodd">
        <g id="icons-general/icon-arrow-next" fill="#007EBC">
            <path d="M18.4267629,36.9999155 C19.8411434,37.0112778 20.9885525,35.8750476 20.999913,34.4661222 C21.0055932,33.7730218 20.7329416,33.1083272 20.2444407,32.6197482 L6.21424035,18.4793636 L20.2444407,4.39010936 C21.2498437,3.38454565 21.2498437,1.75405534 20.2444407,0.754172782 C19.2390376,-0.251390927 17.6088079,-0.251390927 16.6090851,0.754172782 L0.761207029,16.6613953 C-0.244195989,17.6555967 -0.255556475,19.2690436 0.738486057,20.2746073 C0.749846543,20.2859696 0.755526786,20.2916507 0.761207029,20.2973319 L16.6090851,36.0909314 C17.0635046,36.6363219 17.7167325,36.9601475 18.4267629,36.9999155" id="Fill-3" transform="translate(10.500000, 18.500000) scale(-1, 1) translate(-10.500000, -18.500000) "></path>
        </g>
    </g>
</svg>