<?xml version="1.0" encoding="UTF-8"?>
<svg width="50px" height="50px" viewBox="0 0 50 50" version="1.1" xmlns="http://www.w3.org/2000/svg" xmlns:xlink="http://www.w3.org/1999/xlink">
    <!-- Generator: Sketch 49 (51002) - http://www.bohemiancoding.com/sketch -->
    <title>icons-general/006-Ansprechpartner</title>
    <desc>Created with Sketch.</desc>
    <defs>
        <path d="M31.8630812,37.0278913 C31.7585135,37.3925479 31.5656442,37.7281714 31.3019013,38.0010832 C29.8170403,39.5015175 28.0510084,40.3910939 25.9224752,40.4247724 C24.9290823,40.4526442 23.9356893,40.3969005 22.9515913,40.259864 C21.3180118,40.0275986 19.2545429,38.0161805 19.5519799,35.8561125 C19.7506585,34.387034 19.9807074,32.9191168 20.2270224,31.4511997 C20.6580736,28.9102165 21.1204951,26.3552973 21.5666505,23.8143141 C21.5922115,23.6505671 21.6038301,23.4844973 21.5980208,23.3184276 C21.5980208,22.2476842 21.2680517,21.8841889 20.21308,21.7367004 C19.7599534,21.6972153 19.3114742,21.6135997 18.8746137,21.4893378 C18.3471279,21.3070094 18.1159171,20.8947384 18.1658772,20.4662088 C18.2169992,20.0202593 18.4946845,19.7403795 19.0732923,19.6242468 C19.3777004,19.5685031 19.6879179,19.5452766 19.9981353,19.5568898 L27.7210393,19.5568898 C28.6772526,19.5568898 29.2384325,20.0028394 29.2732883,20.9597727 C29.2663172,21.7587656 29.1756918,22.5542745 29.0072217,23.3346862 C28.4960019,26.2380033 27.95225,29.1413205 27.4247642,32.0608963 C27.2423517,33.0178296 27.0448349,33.9910215 26.9449147,34.9467935 C26.9054114,35.4182922 26.950724,35.8932749 27.0773671,36.3496764 C27.1784492,36.9256945 27.7222011,37.3135777 28.2996471,37.2241555 C28.8189999,37.137056 29.3278959,36.9930515 29.8170403,36.7944646 C30.2120737,36.6458147 30.5583089,36.3670963 30.9719322,36.2184465 C31.516846,36.0047623 32.0106378,36.4170334 31.8630812,37.0278913 Z M26.0711937,9.56367211 C28.3135894,9.58341467 30.1168009,11.4183111 30.0958874,13.6619946 L30.0958874,13.6863825 C30.0796213,15.9463246 28.249687,17.7777371 26.0537657,17.7614785 C23.7811615,17.7452199 21.9512272,15.8929036 21.9616839,13.6213482 C21.969817,11.3706967 23.8032369,9.5543815 26.0537657,9.56367211 L26.0711937,9.56367211 Z M42.6881596,7.31882727 C32.9215384,-2.44096376 17.0876683,-2.43980243 7.32220904,7.32347258 C-2.01800832,16.6617019 -2.48042983,31.6521092 6.26839922,41.5477755 L6.51471419,41.7626209 C5.57360509,43.8065562 3.94118746,46.3150223 1.36649885,47.5843525 C0.885487536,47.8189406 0.684485222,48.3984427 0.918019703,48.8803933 C1.05744327,49.1672411 1.3304811,49.3669893 1.64650786,49.4146037 C4.4686733,49.8605532 8.51079498,49.365828 12.2752314,46.5124478 L12.3240296,46.5612236 C24.2447449,53.547766 39.5743665,49.5504789 46.562973,37.6341039 C52.3176808,27.8243758 50.7259284,15.3679838 42.6881596,7.31882727 Z" id="path-1"></path>
    </defs>
    <g id="icons-general/006-Ansprechpartner" stroke="none" stroke-width="1" fill="none" fill-rule="evenodd">
        <g id="Farben/Color-1">
            <g>
                <mask id="mask-2" fill="white">
                    <use xlink:href="#path-1"></use>
                </mask>
                <use id="Mask" fill="#E3CD00" xlink:href="#path-1"></use>
                <g id="Farben/teritary-1" mask="url(#mask-2)" fill="#004C2D">
                    <g transform="translate(-9.000000, -27.000000)" id="Golden-Main">
                        <rect x="0" y="0" width="75" height="98"></rect>
                    </g>
                </g>
            </g>
        </g>
    </g>
</svg>