<svg width="136" height="136" viewBox="0 0 136 136" xmlns="http://www.w3.org/2000/svg" xmlns:xlink="http://www.w3.org/1999/xlink"><title>000-9 Icon/Playbutton</title><defs><filter x="-2.3%" y="-2.3%" width="104.7%" height="104.7%" filterUnits="objectBoundingBox" id="a"><feOffset in="SourceAlpha" result="shadowOffsetOuter1"/><feGaussianBlur stdDeviation="1" in="shadowOffsetOuter1" result="shadowBlurOuter1"/><feColorMatrix values="0 0 0 0 0 0 0 0 0 0 0 0 0 0 0 0 0 0 0.5 0" in="shadowBlurOuter1" result="shadowMatrixOuter1"/><feMerge><feMergeNode in="shadowMatrixOuter1"/><feMergeNode in="SourceGraphic"/></feMerge></filter><path id="b" d="M0 0h128v128H0z"/></defs><g filter="url(#a)" transform="translate(4 4)" fill="none" fill-rule="evenodd"><mask id="c" fill="#fff"><use xlink:href="#b"/></mask><path d="M86.12 67.392l-32 20a4.002 4.002 0 0 1-4.06.105A3.995 3.995 0 0 1 48 84V44a4 4 0 0 1 6.12-3.392l32 20A4.006 4.006 0 0 1 88 64c0 1.378-.712 2.66-1.88 3.392M64 0C28.655 0 0 28.653 0 64c0 35.345 28.655 64 64 64s64-28.655 64-64c0-35.347-28.655-64-64-64" fill="#F0781E" mask="url(#c)"/></g></svg>