<?xml version="1.0" encoding="UTF-8"?>
<svg width="38px" height="37px" viewBox="0 0 38 37" version="1.1" xmlns="http://www.w3.org/2000/svg" xmlns:xlink="http://www.w3.org/1999/xlink">
    <!-- Generator: Sketch 48.2 (47327) - http://www.bohemiancoding.com/sketch -->
    <title>icons-general/icon-close</title>
    <desc>Created with Sketch.</desc>
    <defs></defs>
    <g id="Symbols" stroke="none" stroke-width="1" fill="none" fill-rule="evenodd">
        <g id="icons-general/icon-close" fill="#007EBC">
            <path d="M19.3869603,22.0236077 L5.37678203,35.2886047 C4.87641484,35.7623256 4.21821953,36 3.55915703,36 C2.90789922,36 2.25664141,35.7680233 1.75714141,35.3040698 C0.753805469,34.3696512 0.746867969,32.849186 1.74153203,31.9066279 L15.6425477,18.745 L1.74153203,5.58255814 C0.746867969,4.64081395 0.753805469,3.11953488 1.75714141,2.18593023 C2.76134453,1.25151163 4.38125078,1.25883721 5.37678203,2.20139535 L19.3869603,15.4663923 L32.8375633,2.2005814 C33.7932732,1.25883721 35.3475507,1.25151163 36.3124183,2.18593023 C37.2756208,3.11953488 37.2822807,4.64081395 36.3274033,5.58255814 L22.9815957,18.745 L36.3274033,31.9066279 C37.2822807,32.849186 37.2756208,34.3696512 36.3124183,35.3040698 C35.8328982,35.7680233 35.2076907,36 34.5824832,36 C33.9497832,36 33.3179157,35.7623256 32.8375633,35.2894186 L19.3869603,22.0236077 Z" id="Combined-Shape"></path>
        </g>
    </g>
</svg>