<?xml version="1.0" encoding="UTF-8"?>
<svg width="33px" height="41px" viewBox="0 0 33 41" version="1.1" xmlns="http://www.w3.org/2000/svg" xmlns:xlink="http://www.w3.org/1999/xlink">
    <!-- Generator: Sketch 49.3 (51167) - http://www.bohemiancoding.com/sketch -->
    <title>icon pdf download @1x</title>
    <desc>Created with Sketch.</desc>
    <defs>
        <polygon id="path-1" points="3.10077519e-05 0.029870801 32.4571576 0.029870801 32.4571576 7.10155857 32.4571576 39.8966305 3.10077519e-05 39.8966305"></polygon>
    </defs>
    <g id="icon-pdf-download-" stroke="none" stroke-width="1" fill="none" fill-rule="evenodd">
        <g id="icons-general/icon-pdf-download">
            <path d="M8.03854264,25.7525788 C8.03854264,25.0904599 7.57911111,24.6954212 6.76877519,24.6954212 C6.43771576,24.6954212 6.21363307,24.7282894 6.0961137,24.7594005 L6.0961137,26.8837416 C6.23502842,26.9149561 6.40588114,26.9254987 6.64122997,26.9254987 C7.50479587,26.9254987 8.03854264,26.4890129 8.03854264,25.7525788" id="Fill-1" fill="#F0950A"></path>
            <path d="M13.0567649,24.7176744 C12.6934574,24.7176744 12.458832,24.7493023 12.3203307,24.7815504 L12.3203307,29.4860465 C12.4592455,29.518708 12.6833282,29.518708 12.8860155,29.518708 C14.3584703,29.5292506 15.3189871,28.7183979 15.3189871,27.0009819 C15.3294264,25.5075452 14.4541809,24.7176744 13.0567649,24.7176744" id="Fill-3" fill="#F0950A"></path>
            <g id="Group-7" transform="translate(0.000000, 0.073488)">
                <mask id="mask-2" fill="white">
                    <use xlink:href="#path-1"></use>
                </mask>
                <g id="Clip-6"></g>
                <path d="M22.3328475,26.4256227 L22.3328475,27.7483101 L19.750522,27.7483101 L19.750522,30.6402997 L18.1181705,30.6402997 L18.1181705,23.4491886 L22.5137261,23.4491886 L22.5137261,24.7824186 L19.750522,24.7824186 L19.750522,26.4256227 L22.3328475,26.4256227 Z M10.6878863,30.6076382 L10.6878863,23.5444858 C11.2856124,23.4491886 12.0644238,23.3959587 12.8860258,23.3959587 C14.2514005,23.3959587 15.137292,23.6410233 15.8309354,24.1634005 C16.5778088,24.7185426 17.0469561,25.6036072 17.0469561,26.8742016 C17.0469561,28.2501189 16.5459742,29.200093 15.8519173,29.7863463 C15.0945013,30.4158036 13.9422532,30.714615 12.5339845,30.714615 C11.6908837,30.714615 11.0933643,30.6609716 10.6878863,30.6076382 Z M28.2150181,37.2980775 L6.36747287,37.2980775 C5.46152972,37.2980775 4.7238553,36.5604031 4.7238553,35.6536331 L4.7238553,33.752031 L25.0908837,33.752031 C26.0351731,33.752031 26.8007545,32.9872765 26.8007545,32.0424703 L26.8007545,21.673168 C26.8007545,20.7283618 26.0351731,19.9631938 25.0908837,19.9631938 L4.7238553,19.9631938 L4.7238553,4.27285788 C4.7238553,3.36846512 5.46152972,2.6307907 6.36747287,2.6307907 L21.4074729,2.6150801 L21.4074729,8.17466667 C21.4074729,9.79854264 22.7248889,11.1170956 24.3500052,11.1170956 L29.7956899,11.101385 L29.8570853,35.6536331 C29.8570853,36.5604031 29.1210646,37.2980775 28.2150181,37.2980775 Z M4.4856124,23.5444858 C4.98669767,23.4596279 5.69088372,23.3959587 6.68323514,23.3959587 C7.68602584,23.3959587 8.40075452,23.5872765 8.88116796,23.9716693 C9.33977261,24.3341499 9.64954005,24.9320827 9.64954005,25.6358553 C9.64954005,26.3396279 9.41501809,26.9379742 8.98824806,27.3433488 C8.43310594,27.8658295 7.61191731,28.1003514 6.65140052,28.1003514 C6.43775711,28.1003514 6.24602584,28.0899121 6.09615504,28.0688269 L6.09615504,30.6402997 L4.4856124,30.6402997 L4.4856124,23.5444858 Z M22.3796693,0.0298604651 L6.36747287,0.0298604651 C4.02824806,0.0298604651 2.12406202,1.9350801 2.12406202,4.27285788 L2.12406202,19.9631938 L1.70990181,19.9631938 C0.765405685,19.9631938 3.10077519e-05,20.7283618 3.10077519e-05,21.673168 L3.10077519e-05,32.0424703 C3.10077519e-05,32.9872765 0.765405685,33.752031 1.70990181,33.752031 L2.12406202,33.752031 L2.12406202,35.6536331 C2.12406202,37.9940982 4.02824806,39.8966305 6.36747287,39.8966305 L28.2150181,39.8966305 C30.5531059,39.8966305 32.4571886,37.9937881 32.4571886,35.6536331 L32.4571886,10.0722377 L22.3796693,0.0298604651 Z" id="Fill-5" fill="#F0950A" mask="url(#mask-2)"></path>
            </g>
        </g>
    </g>
</svg>