<?xml version="1.0" encoding="UTF-8"?>
<svg width="43px" height="40px" viewBox="0 0 43 40" version="1.1" xmlns="http://www.w3.org/2000/svg" xmlns:xlink="http://www.w3.org/1999/xlink">
    <!-- Generator: Sketch 50.2 (55047) - http://www.bohemiancoding.com/sketch -->
    <title>sommergetreide</title>
    <desc>Created with Sketch.</desc>
    <defs>
        <polygon id="path-1" points="2.9109668e-05 0.448493872 42.9278365 0.448493872 42.9278365 35.5142206 2.9109668e-05 35.5142206"></polygon>
    </defs>
    <g id="Template" stroke="none" stroke-width="1" fill="none" fill-rule="evenodd">
        <g id="VO_Winterweizen_Desktop-Anbau-V1" transform="translate(-921.000000, -197.000000)">
            <g id="sommergetreide" transform="translate(921.000000, 197.000000)">
                <g id="Group-3" transform="translate(0.000000, 4.179618)">
                    <mask id="mask-2" fill="white">
                        <use xlink:href="#path-1"></use>
                    </mask>
                    <g id="Clip-2"></g>
                    <path d="M18.9883413,35.5142206 C10.011851,35.5142206 2.32362981,30.8151819 0.432620192,23.4211212 C-1.15651442,17.2132354 1.74007212,10.6907951 7.35757212,6.17947439 C3.94911058,9.70045569 2.23074519,14.3984797 3.11415865,19.1340474 C4.4690625,26.3941688 11.4909375,31.351954 19.6405529,31.351954 C20.8854087,31.351954 22.157524,31.2372938 23.4407452,30.9937677 C33.1027644,29.1744249 39.6733413,20.9168613 38.1114663,12.5456521 C36.8857933,5.95421276 30.9835817,1.26126218 23.8072356,0.45255264 C23.850649,0.448493872 23.898101,0.448493872 23.9394952,0.448493872 C32.9119471,0.448493872 40.6042067,5.14753261 42.4952163,12.5456521 C44.8516587,21.7468793 37.3471875,31.6411412 25.7285337,34.6426002 C23.4528606,35.2331509 21.181226,35.5142206 18.9883413,35.5142206" id="Fill-1" fill="#1A4895" mask="url(#mask-2)"></path>
                </g>
                <path d="M26.0753365,31.0214688 C25.9673077,30.2269649 25.7048077,29.0661573 25.081875,27.8840411 C24.6972115,27.1524481 24.1469712,26.3660618 23.375625,25.6689684 L23.3715865,25.1372698 C23.9177885,23.8273024 25.0041346,22.4666004 26.9648077,21.1840297 C26.9648077,21.1840297 31.1860096,26.8510846 26.0753365,31.0214688" id="Fill-4" fill="#1A4895"></path>
                <path d="M23.2929375,23.4073213 C23.178851,22.6118028 22.916351,21.4469364 22.2934183,20.2658349 C21.8835144,19.4875661 21.2898606,18.6463864 20.435726,17.922911 C20.4478413,17.8853674 20.4609663,17.8468091 20.475101,17.8112949 L20.4872163,17.8072361 L20.4872163,17.7737513 C20.9960625,16.387682 22.094524,14.9336283 24.176351,13.5648088 C24.176351,13.5648088 28.3985625,19.2369371 23.2929375,23.4073213" id="Fill-6" fill="#1A4895"></path>
                <path d="M20.4022067,15.5116983 C20.2921587,14.7161798 20.0296587,13.5553721 19.4087452,12.3732559 C18.9978317,11.5909284 18.4041779,10.7538075 17.5510529,10.027288 C18.0316298,8.59860163 19.1321106,7.08772521 21.2896587,5.67324454 C21.2896587,5.67324454 25.5128798,11.3413141 20.4022067,15.5116983" id="Fill-8" fill="#1A4895"></path>
                <path d="M16.5195288,9.02720753 C16.5195288,9.02720753 14.2186154,8.41027479 12.9222692,6.41640497 C12.0257308,5.03135037 11.6158269,2.97659903 12.8162596,0.000507346009 C12.8758269,0.0208011864 16.8274615,1.36425342 17.3140962,4.95321908 C17.4655385,6.08155661 17.2807788,7.42906761 16.5195288,9.02720753" id="Fill-10" fill="#1A4895"></path>
                <path d="M18.2448606,16.6304978 C17.2554375,16.2520176 16.0741875,16.0176238 14.6556779,16.0176238 C14.4012548,16.0176238 14.1417837,16.0257413 13.8792837,16.0429911 C10.4122644,14.2997502 10.1346202,9.79350295 10.1346202,9.79350295 C10.7181779,9.71638635 11.2643798,9.68188682 11.7712067,9.68188682 C18.9253413,9.68188682 18.9354375,16.5198963 18.9354375,16.5198963 C18.6981779,16.5625134 18.4700048,16.6010717 18.2448606,16.6304978" id="Fill-12" fill="#94BF1D"></path>
                <path d="M21.5360048,24.4615863 C20.4536971,23.9603285 19.1109087,23.6366417 17.4440337,23.6366417 C17.0815817,23.6366417 16.6989375,23.6528768 16.314274,23.6823029 C13.2733125,21.7959904 13.0188894,17.6844584 13.0188894,17.6844584 C13.6034567,17.6124152 14.1496587,17.5779157 14.6564856,17.5779157 C21.8116298,17.5779157 21.8237452,24.4098371 21.8237452,24.4098371 C21.7268221,24.4321603 21.6329279,24.4433219 21.5360048,24.4615863" id="Fill-14" fill="#94BF1D"></path>
                <path d="M22.6225529,32.2303728 C16.235726,32.2303728 15.8036106,25.3040851 15.8036106,25.3040851 C16.3871683,25.2310273 16.9333702,25.192469 17.4442356,25.192469 C24.6003894,25.192469 24.6084663,32.0304785 24.6084663,32.0304785 C23.8886106,32.1664472 23.2283221,32.2303728 22.6225529,32.2303728" id="Fill-16" fill="#94BF1D"></path>
            </g>
        </g>
    </g>
</svg>