<?xml version="1.0" encoding="UTF-8"?>
<svg width="75px" height="75px" viewBox="0 0 75 75" version="1.1" xmlns="http://www.w3.org/2000/svg" xmlns:xlink="http://www.w3.org/1999/xlink">
    <!-- Generator: Sketch 49 (51002) - http://www.bohemiancoding.com/sketch -->
    <title>icons-header/page-3-header-icon</title>
    <desc>Created with Sketch.</desc>
    <defs>
        <path d="M36.0386935,49.5047451 C34.3440955,55.9978355 25.8026382,58.0458255 24.4569095,57.9297451 C23.110804,57.8109009 23.9895729,64.4808757 24.4569095,65.357132 C24.9265075,66.2360265 21.065201,66.1806245 21.065201,66.1806245 C21.065201,66.1806245 18.3253769,44.9332627 25.2748744,35.9330114 C27.7718593,32.7021069 15.2109296,39.060524 17.4385678,56.87673 C17.4385678,56.87673 12.3126884,55.8340164 11.0008794,49.6209511 C8.01846734,35.4684385 19.7770101,31.1950717 24.8658291,26.5735893 C29.9545226,21.9544938 29.8384422,21.1915541 30.2474874,20.8405491 C30.6567839,20.4896697 31.303392,22.8306245 31.8258794,24.5253481 C32.3538945,26.2249712 37.735804,43.0117803 36.0386935,49.5047451 M32.4330402,15.4139159 C32.4330402,17.847333 39.1900754,23.4640416 41.6236181,23.4640416 L56.7580402,23.4640416 L56.7580402,63.0345189 C56.7580402,66.787534 56.3937186,74.8166798 52.6404523,74.8166798 L9.07964824,74.8166798 C5.3290201,74.8166798 0,66.787534 0,63.0345189 L0,3.42547372 C0,-0.330305172 5.3290201,1.84193101 9.07964824,1.84193101 L32.4330402,1.84193101 L32.4330402,15.4139159 Z M56.4095854,11.5260265 C57.0323241,12.1541672 57.2226508,13.125524 56.8845854,13.9411019 C56.5441332,14.7619561 55.7471482,15.355926 54.8628518,15.355926 L43.4712688,15.355926 C42.2622236,15.355926 40.5412437,13.8040416 40.5412437,12.5949963 L40.5412437,2.15090086 C40.5412437,1.26660438 41.7028015,0.501152115 42.520892,0.160825481 C43.3365955,-0.179878036 44.9069472,0.0367048784 45.532701,0.6595692 L56.4095854,11.5260265 Z" id="path-1"></path>
    </defs>
    <g id="icons-header/page-3-header-icon" stroke="none" stroke-width="1" fill="none" fill-rule="evenodd">
        <g id="Farben/Color-1" transform="translate(9.000000, 0.000000)">
            <mask id="mask-2" fill="white">
                <use xlink:href="#path-1"></use>
            </mask>
            <use id="Mask" fill="#E3CD00" xlink:href="#path-1"></use>
            <g id="Farben/teritary-1" mask="url(#mask-2)" fill="#004C2D">
                <g transform="translate(-9.000000, 0.000000)" id="Golden-Main">
                    <rect x="0" y="0" width="78" height="79"></rect>
                </g>
            </g>
        </g>
    </g>
</svg>