<?xml version="1.0" encoding="UTF-8"?>
<svg width="75px" height="75px" viewBox="0 0 75 75" version="1.1" xmlns="http://www.w3.org/2000/svg" xmlns:xlink="http://www.w3.org/1999/xlink">
    <!-- Generator: Sketch 49 (51002) - http://www.bohemiancoding.com/sketch -->
    <title>icons-header/page-4-header-icon </title>
    <desc>Created with Sketch.</desc>
    <defs>
        <path d="M42.348139,51.1620896 C40.891957,51.1620896 39.7109677,49.9779124 39.7109677,48.5189168 C39.7109677,47.0576869 40.891957,45.8746269 42.348139,45.8746269 C43.804321,45.8746269 44.9853102,47.0576869 44.9853102,48.5189168 C44.9853102,49.9779124 43.804321,51.1620896 42.348139,51.1620896 Z M34.4366253,43.2303369 C34.4366253,41.7702242 35.6176145,40.5871642 37.0737965,40.5871642 C38.5299785,40.5871642 39.7109677,41.7702242 39.7109677,43.2303369 C39.7109677,44.6915669 38.5299785,45.8746269 37.0737965,45.8746269 C35.6176145,45.8746269 34.4366253,44.6915669 34.4366253,43.2303369 Z M13.2580307,27.9810698 C8.6089376,27.6501138 8.34522048,22.3734219 8.34522048,22.3734219 L8.06520084,16.7726281 C8.06520084,16.7726281 8.06520084,13.5697965 11.0850016,13.3240274 C14.6782673,13.0312586 30.018932,10.3992772 33.2890243,10.8839613 C36.1304564,11.3040208 37.8940047,13.6814207 39.4964459,14.9249536 C40.729683,15.8825719 43.8616834,18.6976562 46.5266648,22.6936071 C48.8847754,26.2283738 49.2558973,30.1469712 49.2558973,30.1469712 C49.5953732,32.6722242 49.6826395,35.4128924 48.8281961,35.5959952 C48.3535053,35.6978278 44.6240657,35.4050591 43.8137349,31.7753139 C42.9458658,27.8900079 42.2976012,24.4619696 35.1168237,22.0385492 C32.1679868,21.0427438 30.2893619,21.7800511 28.5478699,24.5628231 C27.6061601,26.9000774 27.3453199,26.3292273 31.4957479,28.9406464 C35.8072831,31.6519397 36.6233677,33.9441527 35.4726021,35.5959952 C34.3208775,37.2468586 32.1814124,36.6769876 30.0160551,35.2288103 C21.5780662,29.5937459 15.3399575,28.2797135 13.4881838,27.9967364 C13.4105072,27.9918406 13.3309125,27.9859656 13.2580307,27.9810698 Z M43.227196,36.1803867 C43.227196,37.6416166 42.0462068,38.8246766 40.5900248,38.8246766 C39.1338428,38.8246766 37.9528536,37.6416166 37.9528536,36.1803867 C37.9528536,34.7202739 39.1338428,33.5372139 40.5900248,33.5372139 C42.0462068,33.5372139 43.227196,34.7202739 43.227196,36.1803867 Z M51.3514783,49.399602 L69.5989082,49.399602 L69.5989082,53.2149731 L52.0367639,53.2149731 L40.3946726,63.055079 C40.0442645,63.3513613 39.6142623,63.4995025 39.1842601,63.4995025 C38.7494046,63.4995025 38.3145491,63.3484181 37.9621997,63.0452683 L26.5200642,53.2149731 L8.06491315,53.2149731 L8.06491315,49.399602 L27.2131152,49.399602 C27.6615599,49.399602 28.0954448,49.560497 28.4361463,49.8538362 L39.1939667,59.0974531 L50.1400951,49.8440255 C50.4807966,49.5565728 50.9088575,49.399602 51.3514783,49.399602 Z" id="path-1"></path>
    </defs>
    <g id="icons-header/page-4-header-icon-" stroke="none" stroke-width="1" fill="none" fill-rule="evenodd">
        <mask id="mask-2" fill="white">
            <use xlink:href="#path-1"></use>
        </mask>
        <use id="Mask" fill="#004C2D" xlink:href="#path-1"></use>
    </g>
</svg>