<?xml version="1.0" encoding="UTF-8"?>
<svg width="75px" height="75px" viewBox="0 0 75 75" version="1.1" xmlns="http://www.w3.org/2000/svg" xmlns:xlink="http://www.w3.org/1999/xlink">
    <!-- Generator: Sketch 49 (51002) - http://www.bohemiancoding.com/sketch -->
    <title>icons-header/page-sortenprofil</title>
    <desc>Created with Sketch.</desc>
    <defs>
        <polygon id="path-1" points="0 0 50 0 50 68 0 68"></polygon>
    </defs>
    <g id="icons-header/page-sortenprofil" stroke="none" stroke-width="1" fill="none" fill-rule="evenodd">
        <g id="Page-1" transform="translate(13.000000, 4.000000)">
            <mask id="mask-2" fill="white">
                <use xlink:href="#path-1"></use>
            </mask>
            <g id="Clip-2"></g>
            <path d="M12.7051177,56.8928224 C12.7051177,57.8001288 11.9687456,58.5397772 11.0654582,58.5397772 C10.1625982,58.5397772 9.426226,57.8001288 9.426226,56.8928224 C9.426226,55.9859454 10.1625982,55.2462969 11.0654582,55.2462969 C11.9687456,55.162468 12.7051177,55.9859454 12.7051177,56.8928224 M12.7051177,47.8363955 C12.7051177,48.7437019 11.9687456,49.482921 11.0654582,49.482921 C10.1625982,49.482921 9.426226,48.7437019 9.426226,47.8363955 C9.426226,46.9290892 10.1625982,46.1898701 11.0654582,46.1898701 C11.9687456,46.1898701 12.7051177,46.9290892 12.7051177,47.8363955 M12.7051177,38.5361026 C12.7051177,39.4433016 11.9687456,40.1824134 11.0654582,40.1824134 C10.1625982,40.1824134 9.426226,39.4428723 9.426226,38.5361026 C9.426226,37.6286889 10.1625982,36.8894698 11.0654582,36.8894698 C11.9687456,36.8894698 12.7051177,37.6286889 12.7051177,38.5361026 M12.7051177,29.5558839 C12.7051177,30.4627609 11.9687456,31.202302 11.0654582,31.202302 C10.1625982,31.202302 9.426226,30.4627609 9.426226,29.5558839 C9.426226,28.6484702 10.1625982,27.908929 11.0654582,27.908929 C11.9687456,27.8326136 12.7051177,28.572262 12.7051177,29.5558839 M12.7051177,20.7505146 C12.7051177,21.6579283 11.9687456,22.3974694 11.0654582,22.3974694 C10.1625982,22.3974694 9.426226,21.6579283 9.426226,20.7505146 C9.426226,19.8436375 10.1625982,19.1040964 11.0654582,19.1040964 C11.9687456,19.0201601 12.7051177,19.7598086 12.7051177,20.7505146 M12.7051177,11.6940877 C12.7051177,12.6015014 11.9687456,13.3406132 11.0654582,13.3406132 C10.1625982,13.3406132 9.426226,12.6015014 9.426226,11.6940877 C9.426226,10.7867813 10.1625982,10.0476696 11.0654582,10.0476696 C11.9687456,10.0476696 12.7051177,10.7872107 12.7051177,11.6940877 M18.1160799,11.6940877 C18.1160799,10.8707176 18.7689944,10.2153275 19.5887173,10.2153275 L38.274254,10.2153275 C39.0936564,10.2153275 39.746464,10.8707176 39.746464,11.6940877 C39.746464,12.5175651 39.0936564,13.1729553 38.274254,13.1729553 L19.5963044,13.1729553 C18.7764746,13.2567842 18.1160799,12.5175651 18.1160799,11.6940877 M18.1160799,20.7505146 C18.1160799,19.9274665 18.7689944,19.2717544 19.5887173,19.2717544 L38.274254,19.2717544 C39.0936564,19.2717544 39.746464,19.9274665 39.746464,20.7505146 C39.746464,21.573992 39.0936564,22.2298115 38.274254,22.2298115 L19.5963044,22.2298115 C18.7764746,22.2298115 18.1160799,21.573992 18.1160799,20.7505146 M40.004424,29.7235418 C40.004424,30.5465899 39.3520438,31.202302 38.532214,31.202302 L19.6722818,31.202302 C18.852452,31.202302 18.1995375,30.5465899 18.1995375,29.7235418 C18.1995375,28.9000644 18.852452,28.2443523 19.6722818,28.2443523 L38.5247338,28.2443523 C39.2685862,28.2443523 40.004424,28.9000644 40.004424,29.7235418 M40.004424,38.6961397 C40.004424,39.5197245 39.3520438,40.1748999 38.532214,40.1748999 L19.6722818,40.1748999 C18.852452,40.1748999 18.1995375,39.5197245 18.1995375,38.6961397 C18.1995375,37.8726623 18.852452,37.2172722 19.6722818,37.2172722 L38.5247338,37.2172722 C39.2685862,37.2169502 40.004424,37.8726623 40.004424,38.6961397 M40.004424,56.8928224 C40.004424,57.7162998 39.3520438,58.372012 38.532214,58.372012 L19.6722818,58.372012 C18.852452,58.372012 18.1995375,57.7162998 18.1995375,56.8928224 C18.1995375,56.0697743 18.852452,55.4141695 19.6722818,55.4141695 L38.5247338,55.4141695 C39.2685862,55.3301259 40.004424,56.0697743 40.004424,56.8928224 M40.004424,47.7525666 C40.004424,48.5761513 39.3520438,49.2313268 38.532214,49.2313268 L19.6722818,49.2313268 C18.852452,49.2313268 18.1995375,48.5761513 18.1995375,47.7525666 C18.1995375,46.9290892 18.852452,46.273699 19.6722818,46.273699 L38.5247338,46.273699 C39.2685862,46.1898701 40.004424,46.9290892 40.004424,47.7525666 M45.9852704,0 L4.01472958,0 C1.79866724,0 0,1.81429077 0,4.03269942 L0,63.9673006 C0,66.1933301 1.80614744,68 4.01472958,68 L45.9852704,68 C48.2013328,68 50,66.1857092 50,63.9673006 L50,4.03269942 C50,1.81429077 48.2013328,0 45.9852704,0" id="Fill-1" fill="#004C2D" mask="url(#mask-2)"></path>
        </g>
    </g>
</svg>