<?xml version="1.0" encoding="UTF-8"?>
<svg width="50px" height="50px" viewBox="0 0 50 50" version="1.1" xmlns="http://www.w3.org/2000/svg" xmlns:xlink="http://www.w3.org/1999/xlink">
    <!-- Generator: Sketch 49 (51002) - http://www.bohemiancoding.com/sketch -->
    <title>icon-sitckynavi/zuechtung-sticky-icon</title>
    <desc>Created with Sketch.</desc>
    <defs>
        <path d="M27.6142857,33.2546996 C26.7386927,33.2546996 26.0285714,32.5426614 26.0285714,31.6653767 C26.0285714,30.7867484 26.7386927,30.0753819 27.6142857,30.0753819 C28.4898787,30.0753819 29.2,30.7867484 29.2,31.6653767 C29.2,32.5426614 28.4898787,33.2546996 27.6142857,33.2546996 Z M22.8571429,28.4853872 C22.8571429,27.6074307 23.5672642,26.8960642 24.4428571,26.8960642 C25.3184501,26.8960642 26.0285714,27.6074307 26.0285714,28.4853872 C26.0285714,29.3640155 25.3184501,30.0753819 24.4428571,30.0753819 C23.5672642,30.0753819 22.8571429,29.3640155 22.8571429,28.4853872 Z M10.1225886,19.3160998 C7.32711844,19.1170981 7.16854701,15.9442568 7.16854701,15.9442568 L7.00017299,12.5765351 C7.00017299,12.5765351 7.00017299,10.6506928 8.81596,10.5029134 C10.9765678,10.3268734 20.2008119,8.74427974 22.1670977,9.03571719 C23.8756327,9.28829632 24.9360431,10.7178118 25.8995808,11.4655402 C26.6411184,12.0413499 28.5243704,13.7340422 30.1268068,16.1367821 C31.5447236,18.2622149 31.7678769,20.6184426 31.7678769,20.6184426 C31.9720016,22.1368612 32.0244743,23.7848075 31.5107029,23.8949061 C31.2252743,23.9561374 28.982786,23.7800974 28.4955392,21.5975547 C27.9736951,19.2613449 27.5838977,17.2000873 23.2661418,15.7429 C21.4930249,15.1441285 20.3634197,15.5874667 19.3162717,17.2607298 C18.7500275,18.666106 18.593186,18.3228574 21.0888119,19.8930871 C23.6813106,21.5233706 24.1720171,22.9016637 23.4800691,23.8949061 C22.7875444,24.8875597 21.5010977,24.5448999 20.1990821,23.6741201 C15.125373,20.2857917 11.3744379,19.4956724 10.2609782,19.32552 C10.2142717,19.3225762 10.1664119,19.3190437 10.1225886,19.3160998 Z M28.1428571,24.246297 C28.1428571,25.1249252 27.4327358,25.8362917 26.5571429,25.8362917 C25.6815499,25.8362917 24.9714286,25.1249252 24.9714286,24.246297 C24.9714286,23.3683404 25.6815499,22.656974 26.5571429,22.656974 C27.4327358,22.656974 28.1428571,23.3683404 28.1428571,24.246297 Z M33.0279364,32.1949271 L44,32.1949271 L44,34.4890854 L33.4399943,34.4890854 L26.4396788,40.4058786 C26.2289807,40.5840313 25.9704231,40.6731076 25.7118655,40.6731076 C25.4503896,40.6731076 25.1889138,40.5822615 24.9770483,40.3999795 L18.096965,34.4890854 L7,34.4890854 L7,32.1949271 L18.5136921,32.1949271 C18.7833391,32.1949271 19.0442313,32.2916722 19.249093,32.4680552 L25.717702,38.0261833 L32.2995394,32.4621561 C32.504401,32.2893126 32.7617913,32.1949271 33.0279364,32.1949271 Z" id="path-1"></path>
        <filter x="-8.1%" y="-9.5%" width="116.2%" height="118.9%" filterUnits="objectBoundingBox" id="filter-3">
            <feOffset dx="0" dy="0" in="SourceAlpha" result="shadowOffsetOuter1"></feOffset>
            <feGaussianBlur stdDeviation="1" in="shadowOffsetOuter1" result="shadowBlurOuter1"></feGaussianBlur>
            <feColorMatrix values="0 0 0 0 0   0 0 0 0 0   0 0 0 0 0  0 0 0 0.5 0" type="matrix" in="shadowBlurOuter1"></feColorMatrix>
        </filter>
    </defs>
    <g id="icon-sitckynavi/zuechtung-sticky-icon" stroke="none" stroke-width="1" fill="none" fill-rule="evenodd">
        <mask id="mask-2" fill="white">
            <use xlink:href="#path-1"></use>
        </mask>
        <g id="Mask">
            <use fill="black" fill-opacity="1" filter="url(#filter-3)" xlink:href="#path-1"></use>
            <use fill="#FFFFFF" fill-rule="evenodd" xlink:href="#path-1"></use>
        </g>
    </g>
</svg>