<?xml version="1.0" encoding="UTF-8"?>
<svg width="50px" height="50px" viewBox="0 0 50 50" version="1.1" xmlns="http://www.w3.org/2000/svg" xmlns:xlink="http://www.w3.org/1999/xlink">
    <!-- Generator: Sketch 49 (51002) - http://www.bohemiancoding.com/sketch -->
    <title>icon-sitckynavi/anbau-sticky-icon</title>
    <desc>Created with Sketch.</desc>
    <defs>
        <path d="M25.4261049,31.4246991 C26.2321,30.3462179 27.4434294,29.3729875 28.9378632,29.011991 C31.4597774,28.4032578 33.2434527,27.3255683 33.9559578,26.9012746 C33.9897334,26.8814246 34.3266856,26.5737496 34.3001476,26.736685 C34.1360945,27.7415912 32.5800027,32.1350573 31.2667738,33.3467343 C29.0720428,35.3701121 26.720837,35.8120434 25.4184958,35.4820083 C25.4110175,36.0930911 25.4002209,36.6858601 25.3856114,37.2535392 C25.4537651,37.5852065 25.448061,37.8814646 25.3597302,38.1157229 C25.2783843,40.4642393 25.1200169,42.2713621 24.8439047,42.9791555 C25.0131984,42.9839898 25.1830739,42.9864232 25.3534993,42.9864232 C35.2155688,42.9864232 43.2398842,34.8366877 43.2398842,24.816586 C43.2398842,14.7964842 35.2155688,6.64358537 25.3534993,6.64358537 C15.4906513,6.64358537 7.46944948,14.7964842 7.46944948,24.816586 C7.46944948,34.1202192 14.3845795,41.8113976 23.2683327,42.8637174 C23.3741698,41.8134693 23.4689798,40.4446244 23.5518801,38.914588 C22.2872103,38.9384619 20.5256603,38.4530182 18.7884601,37.0804824 C17.4587727,36.0290785 15.681054,32.0878198 15.4563181,31.1795152 C15.4195824,31.0318969 15.7610081,31.2985137 15.793422,31.3150831 C16.4986029,31.6713253 18.2640763,32.580383 20.6965544,33.0322758 C21.8978402,33.2551489 22.9420289,33.8735912 23.7419196,34.6231766 C23.7983469,33.0667347 23.8440374,31.4907025 23.8783038,30.0176674 C22.7458581,30.0903054 21.131128,29.5134524 19.6990502,27.7842662 C18.6952269,26.5722855 17.7316805,22.1826114 17.6712652,21.179305 C17.661196,21.016539 17.9191228,21.3237077 17.9454577,21.3445751 C18.5077846,21.7686014 19.9120528,22.8487 21.9677217,23.4613679 C22.7522479,23.6953105 23.4197142,24.1825777 23.9531465,24.7878772 C23.9538724,24.140338 23.9488118,23.620825 23.9377451,23.2684972 C23.9159831,22.5803605 23.9710134,21.5999783 24.0683041,20.6053707 C23.0522809,19.4328665 22.6857513,16.5237462 24.4338427,14.9067039 C25.9667831,13.487555 26.6719357,12.0011872 26.9583535,11.4120781 C26.9720693,11.3848884 27.0438754,11.026136 27.1197156,11.1575527 C27.5860522,11.9702212 28.997971,15.8462575 28.7228486,17.2533221 C28.215267,19.8567894 26.4240931,21.0841631 25.2247219,21.130559 C25.2787645,22.9812765 25.3401967,25.3236149 25.3820522,27.7881185 C25.4419907,28.1708195 25.4485404,28.5264688 25.3983971,28.8287292 C25.4108002,29.6907171 25.4204084,30.5611405 25.4261049,31.4246991 Z M25.3534993,45.0133782 C14.3923577,45.0133782 5.47524094,35.9533715 5.47524094,24.816586 C5.47524094,13.6774279 14.3923577,4.6166303 25.3534993,4.6166303 C36.316976,4.6166303 45.2340927,13.6774279 45.2340927,24.816586 C45.2340927,35.9533715 36.316976,45.0133782 25.3534993,45.0133782 Z" id="path-1"></path>
        <filter x="-7.5%" y="-7.4%" width="115.1%" height="114.9%" filterUnits="objectBoundingBox" id="filter-3">
            <feOffset dx="0" dy="0" in="SourceAlpha" result="shadowOffsetOuter1"></feOffset>
            <feGaussianBlur stdDeviation="1" in="shadowOffsetOuter1" result="shadowBlurOuter1"></feGaussianBlur>
            <feColorMatrix values="0 0 0 0 0   0 0 0 0 0   0 0 0 0 0  0 0 0 0.5 0" type="matrix" in="shadowBlurOuter1"></feColorMatrix>
        </filter>
    </defs>
    <g id="icon-sitckynavi/anbau-sticky-icon" stroke="none" stroke-width="1" fill="none" fill-rule="evenodd">
        <mask id="mask-2" fill="white">
            <use xlink:href="#path-1"></use>
        </mask>
        <g id="Mask" fill="black" fill-opacity="1">
            <use filter="url(#filter-3)" xlink:href="#path-1"></use>
        </g>
        <g id="Farben/teritary-3" mask="url(#mask-2)" fill="#FFFFFF">
            <g transform="translate(2.000000, 4.000000)" id="Light-Gray-Shade">
                <rect x="0" y="0" width="48" height="43"></rect>
            </g>
        </g>
    </g>
</svg>