<?xml version="1.0" encoding="UTF-8"?>
<svg width="50px" height="50px" viewBox="0 0 50 50" version="1.1" xmlns="http://www.w3.org/2000/svg" xmlns:xlink="http://www.w3.org/1999/xlink">
    <!-- Generator: Sketch 49 (51002) - http://www.bohemiancoding.com/sketch -->
    <title>icon-sitckynavi/unser-angebot-sticky-icon</title>
    <desc>Created with Sketch.</desc>
    <defs>
        <path d="M22.1930944,41.1003236 C13.8064252,41.1003236 6.62337655,36.7831056 4.85662012,29.9898498 C3.3719033,24.2863862 6.07816287,18.2939273 11.326552,14.1491743 C8.14205132,17.384058 6.53659513,21.7003438 7.36196186,26.0511225 C8.62783859,32.7213222 15.188325,37.2762622 22.8024509,37.2762622 C23.9655105,37.2762622 25.1540386,37.1709187 26.3529427,36.9471804 C35.3800965,35.2756684 41.5189384,27.6890737 40.05969,19.9980678 C38.9145526,13.9422163 33.4001596,9.63059178 26.695352,8.88759399 C26.7359129,8.88386502 26.7802469,8.88386502 26.8189212,8.88386502 C35.2018173,8.88386502 42.3886391,13.201083 44.1553955,19.9980678 C46.3570023,28.4516486 39.3456299,37.5419515 28.4904067,40.2995267 C26.364262,40.8420922 24.2418905,41.1003236 22.1930944,41.1003236 Z M28.8144221,33.1326279 C28.7134915,32.4026815 28.4682397,31.3361953 27.8862383,30.2501321 C27.52685,29.5779848 27.0127645,28.8554963 26.2921014,28.2150453 L26.2883283,27.7265499 C26.7986407,26.523024 27.813606,25.2728859 29.6454485,24.0945306 C29.6454485,24.0945306 33.5892865,29.3011086 28.8144221,33.1326279 Z M26.2148471,26.1371686 C26.1082569,25.4062899 25.863005,24.3360748 25.2810036,23.2509438 C24.8980334,22.5359133 24.343387,21.7630837 23.5453753,21.0983944 C23.5566946,21.0639014 23.5689572,21.0284761 23.582163,20.9958476 L23.5934824,20.9921186 L23.5934824,20.9613546 C24.0688936,19.6879105 25.0951782,18.3520061 27.0402138,17.0944101 C27.0402138,17.0944101 30.9849951,22.3056492 26.2148471,26.1371686 Z M23.5140585,18.883105 C23.4112414,18.1522264 23.1659896,17.0857402 22.5858747,15.9996769 C22.2019612,15.2809175 21.6473148,14.5118169 20.8502463,13.8443308 C21.2992458,12.5317324 22.327417,11.1436224 24.3431983,9.84407546 C24.3431983,9.84407546 28.2889229,15.0515857 23.5140585,18.883105 Z M19.886501,12.9255119 C19.886501,12.9255119 17.7367744,12.3587081 16.5256077,10.5268503 C15.6879784,9.25433844 15.3050082,7.36654608 16.4265637,4.63227694 C16.482217,4.6509218 20.1742003,5.88521172 20.6288594,9.18255572 C20.7703509,10.2192101 20.5977313,11.457229 19.886501,12.9255119 Z M21.4984658,19.9109963 C20.5740551,19.5632696 19.4704218,19.3479214 18.1451187,19.3479214 C17.9074131,19.3479214 17.6649911,19.3553794 17.4197393,19.3712275 C14.1805286,17.7696338 13.9211276,13.629542 13.9211276,13.629542 C14.4663413,13.5586915 14.9766538,13.5269952 15.4501784,13.5269952 C22.134234,13.5269952 22.1436668,19.8093818 22.1436668,19.8093818 C21.9219968,19.848536 21.7088164,19.8839612 21.4984658,19.9109963 Z M24.5733577,27.1057692 C23.5621656,26.6452411 22.3076082,26.3478555 20.7502591,26.3478555 C20.4116229,26.3478555 20.0541212,26.3627714 19.6947329,26.3898064 C16.8535849,24.6567664 16.6158792,20.8793172 16.6158792,20.8793172 C17.1620362,20.813128 17.6723486,20.7814317 18.1458733,20.7814317 C24.8308721,20.7814317 24.8421915,27.0582248 24.8421915,27.0582248 C24.7516369,27.0787341 24.6639123,27.0889888 24.5733577,27.1057692 Z M25.5885116,34.2433024 C19.621346,34.2433024 19.2176238,27.8798107 19.2176238,27.8798107 C19.7628375,27.8126892 20.2731499,27.7772639 20.7504477,27.7772639 C27.4363898,27.7772639 27.443936,34.0596505 27.443936,34.0596505 C26.7713801,34.184571 26.1544774,34.2433024 25.5885116,34.2433024 Z" id="path-1"></path>
        <filter x="-7.5%" y="-8.2%" width="115.0%" height="116.5%" filterUnits="objectBoundingBox" id="filter-3">
            <feOffset dx="0" dy="0" in="SourceAlpha" result="shadowOffsetOuter1"></feOffset>
            <feGaussianBlur stdDeviation="1" in="shadowOffsetOuter1" result="shadowBlurOuter1"></feGaussianBlur>
            <feColorMatrix values="0 0 0 0 0   0 0 0 0 0   0 0 0 0 0  0 0 0 0.5 0" type="matrix" in="shadowBlurOuter1"></feColorMatrix>
        </filter>
    </defs>
    <g id="icon-sitckynavi/unser-angebot-sticky-icon" stroke="none" stroke-width="1" fill="none" fill-rule="evenodd">
        <mask id="mask-2" fill="white">
            <use xlink:href="#path-1"></use>
        </mask>
        <g id="Mask" fill="black" fill-opacity="1">
            <use filter="url(#filter-3)" xlink:href="#path-1"></use>
        </g>
        <g id="Farben/teritary-2" mask="url(#mask-2)" fill="#FFFFFF">
            <g transform="translate(-0.184089, 1.195829)" id="Farben/Color-3">
                <rect x="0" y="0" width="55" height="50"></rect>
            </g>
        </g>
    </g>
</svg>